# xmcd
#
# Track frame offsets: 
#        150
#        12076
#        24991
#        37767
#        48690
#        60885
#        71410
#        84057
#        95492
#        109446
#        122762
#        132498
#        142497
#        153002
#        164394
#        176397
#        187112
#        197521
#        208282
#        218364
#        229164
#        240168
#        252624
#        266355
#        280474
#
# Disc length: 3883 seconds
#
# Revision: 0
# Processed by: cddbd v1.5.2PL0 Copyright (c) Steve Scherf et al.
# Submitted via: ExactAudioCopy v1.0b3
#
DISCID=5b0f2919
DTITLE=Various Artist - RCAカントリー&ウエスタン100 Disc 4 BVCM-38039-42
DYEAR=1900
DGENRE=Country
TTITLE0=愛さずにはいられない
TTITLE1=谷間に三つの鐘がなる 
TTITLE2=四枚の壁 
TTITLE3=愛しているのに
TTITLE4=恋のトライアングル 
TTITLE5=ワンス・ア・デイ
TTITLE6=レッツ・ゴー・オール・ザ・ウエイ
TTITLE7=恋に言い訳なし
TTITLE8=スイート・メモリーズ 
TTITLE9=恋の英雄 
TTITLE10=トゥゲザー・アゲイン
TTITLE11=ゴー・キャット・ゴー
TTITLE12=悲しみの指環 
TTITLE13=オー・ロンサム・ミー
TTITLE14=アンダー・ユア・スペル・アゲイン
TTITLE15=孤独の影
TTITLE16=ポップ・ア・トップ 
TTITLE17=夢見るアニタ
TTITLE18=サン・アントンへ行こう
TTITLE19=ただの知りあい 
TTITLE20=トラック運転手の歌 
TTITLE21=ドント・ストップ・イン・マイ・ワールド
TTITLE22=オールド・サイド・オブ・タウン 
TTITLE23=マイ・テネシー・マウンテン・ホーム
TTITLE24=思い出のグリーン・グラス
EXTD=
EXTT0=
EXTT1=
EXTT2=
EXTT3=
EXTT4=
EXTT5=
EXTT6=
EXTT7=
EXTT8=
EXTT9=
EXTT10=
EXTT11=
EXTT12=
EXTT13=
EXTT14=
EXTT15=
EXTT16=
EXTT17=
EXTT18=
EXTT19=
EXTT20=
EXTT21=
EXTT22=
EXTT23=
EXTT24=
PLAYORDER=
